<?xml version="1.0" encoding="UTF-8" standalone="no"?>
<!-- Created with Inkscape (http://www.inkscape.org/) -->

<svg
   xmlns:dc="http://purl.org/dc/elements/1.1/"
   xmlns:cc="http://creativecommons.org/ns#"
   xmlns:rdf="http://www.w3.org/1999/02/22-rdf-syntax-ns#"
   xmlns:svg="http://www.w3.org/2000/svg"
   xmlns="http://www.w3.org/2000/svg"
   version="1.1"
   width="1088.7325"
   height="768.38721"
   id="svg3018">
  <defs
     id="defs3020" />
  <metadata
     id="metadata3023">
    <rdf:RDF>
      <cc:Work
         rdf:about="">
        <dc:format>image/svg+xml</dc:format>
        <dc:type
           rdf:resource="http://purl.org/dc/dcmitype/StillImage" />
        <dc:title></dc:title>
      </cc:Work>
    </rdf:RDF>
  </metadata>
  <g
     transform="translate(20.533668,-295.22537)"
     id="layer1" />
  <g
     transform="translate(20.533668,-295.22537)"
     id="layer5"
     style="display:inline">
    <path
       d="M 122.4285,777.46347 C 67.804802,759.78293 26.417995,714.34433 16.913198,661.61813 c -4.214961,-23.38174 -4.214961,-502.71162 0,-526.09337 7.262597,-40.287977 40.606215,-85.755 75.982612,-103.609125 37.35282,-18.851603 5.155435,-17.633361 465.05126,-17.595992 345.96609,0.02811 419.8746,0.709106 432.16757,3.981999 40.90756,10.891257 78.93306,42.070721 96.48876,79.11711 5.5132,11.633978 11.3292,28.078178 12.9246,36.542668 3.9421,20.91642 3.9421,508.30363 0,529.22005 -10.0393,53.267 -55.4782,101.30003 -109.41336,115.65978 -12.30685,3.2766 -86.02057,3.92771 -433.40042,3.82834 -393.36768,-0.11257 -419.51765,-0.426 -434.28572,-5.20612 l 0,0 z M 607.75576,504.28573 C 697.5263,452.42859 770.91402,409.35716 770.83959,408.57145 770.66673,406.7453 447.72816,195.04367 441.42702,192.62569 c -4.35198,-1.67 -4.7128,13.87232 -4.7128,202.99244 0,171.87406 0.62882,204.65237 3.91117,203.87709 2.15117,-0.50806 77.35983,-43.35235 167.13037,-95.20949 z"
       transform="translate(-34.285645,280.93359)"
       id="path3837"
       style="fill:#f44336;fill-opacity:1" />
  </g>
</svg>
